<?xml version="1.0" standalone="no"?>
<!DOCTYPE svg PUBLIC "-//W3C//DTD SVG 20010904//EN"
 "http://www.w3.org/TR/2001/REC-SVG-20010904/DTD/svg10.dtd">
<svg version="1.0" xmlns="http://www.w3.org/2000/svg"
 width="230.000000pt" height="231.000000pt" viewBox="0 0 230.000000 231.000000"
 preserveAspectRatio="xMidYMid meet">
<g transform="translate(0.000000,231.000000) scale(0.100000,-0.100000)"
fill="#000000" stroke="none">
<path d="M1165 1840 c247 -247 451 -450 452 -450 2 0 3 203 3 450 l0 450 -452
0 -453 0 450 -450z"/>
<path d="M365 1960 l-320 -320 640 0 640 0 -320 320 c-176 176 -320 320 -320
320 0 0 -144 -144 -320 -320z"/>
<path d="M1650 1623 l0 -638 320 320 320 320 -317 317 c-175 175 -319 318
-320 318 -2 0 -3 -287 -3 -637z"/>
<path d="M20 1158 l0 -453 450 450 c248 248 450 451 450 452 0 2 -202 3 -450
3 l-450 0 0 -452z"/>
<path d="M1170 1445 c91 -91 166 -165 167 -165 2 0 3 74 3 165 l0 165 -167 0
-168 0 165 -165z"/>
<path d="M835 1480 l-120 -120 245 0 245 0 -120 120 c-66 66 -122 120 -125
120 -3 0 -59 -54 -125 -120z"/>
<path d="M1370 1350 l0 -245 122 123 123 122 -123 122 -122 123 0 -245z"/>
<path d="M1845 1140 l-450 -450 450 0 450 0 0 450 c0 248 0 450 0 450 0 0
-203 -202 -450 -450z"/>
<path d="M700 1163 l0 -168 165 165 c91 91 165 166 165 167 0 2 -74 3 -165 3
l-165 0 0 -167z"/>
<path d="M347 992 l-317 -317 320 -320 320 -320 0 638 c0 350 -1 637 -3 637
-1 0 -145 -143 -320 -318z"/>
<path d="M1450 1138 l-166 -168 168 0 168 0 0 170 c0 94 -1 169 -2 168 -2 0
-77 -77 -168 -170z"/>
<path d="M825 1070 l-120 -120 123 -123 122 -122 0 243 c0 133 -1 242 -3 242
-1 0 -56 -54 -122 -120z"/>
<path d="M980 859 l0 -169 169 0 168 0 -88 87 c-49 47 -125 123 -169 168 l-80
83 0 -169z"/>
<path d="M1238 818 l122 -123 122 123 123 122 -245 0 -245 0 123 -122z"/>
<path d="M700 465 l0 -450 292 3 c161 1 362 3 446 5 l152 2 -445 445 -445 445
0 -450z"/>
<path d="M1315 340 l320 -320 317 317 c175 175 318 319 318 320 0 2 -287 3
-637 3 l-638 0 320 -320z"/>
</g>
</svg>
